<?xml version="1.0" encoding="utf-8"?>
<!-- Generator: Adobe Illustrator 16.0.0, SVG Export Plug-In . SVG Version: 6.00 Build 0)  -->
<!DOCTYPE svg PUBLIC "-//W3C//DTD SVG 1.1//EN" "http://www.w3.org/Graphics/SVG/1.1/DTD/svg11.dtd">
<svg version="1.1" id="Layer_1" xmlns="http://www.w3.org/2000/svg" xmlns:xlink="http://www.w3.org/1999/xlink" x="0px" y="0px"
	 width="612px" height="792px" viewBox="0 0 612 792" enable-background="new 0 0 612 792" xml:space="preserve">
<g>
	<circle fill="#C42127" cx="92.1" cy="355.926" r="13.185"/>
	<circle fill="#C42127" cx="163.455" cy="355.926" r="13.185"/>
	<circle fill="#C42127" cx="129.329" cy="296.459" r="13.185"/>
	<circle fill="#C42127" cx="129.329" cy="415.383" r="13.185"/>
	<circle fill="#C42127" cx="163.455" cy="476.398" r="13.186"/>
	<circle fill="#C42127" cx="199.648" cy="175.466" r="13.185"/>
	<circle fill="#C42127" cx="269.452" cy="175.466" r="13.185"/>
	<circle fill="#C42127" cx="337.708" cy="175.466" r="13.185"/>
	<circle fill="#ED1F24" cx="303.693" cy="235.12" r="13.185"/>
	<circle fill="#ED1F24" cx="374.937" cy="234.92" r="13.185"/>
	<circle fill="#ED1F24" cx="374.937" cy="476.398" r="13.186"/>
	<circle fill="#C42127" cx="337.708" cy="415.383" r="13.185"/>
	<circle fill="#C42127" cx="269.452" cy="415.383" r="13.185"/>
	<circle fill="#C42127" cx="199.648" cy="415.383" r="13.185"/>
	<circle fill="#C42127" cx="337.708" cy="296.459" r="13.185"/>
	<circle fill="#C42127" cx="408.026" cy="296.459" r="13.185"/>
	<circle fill="#C42127" cx="479.606" cy="296.459" r="13.185"/>
	<circle fill="#C42127" cx="479.606" cy="415.383" r="13.185"/>
	<circle fill="#ED1F24" cx="408.548" cy="415.38" r="13.185"/>
	<circle fill="#C42127" cx="443.42" cy="355.926" r="13.185"/>
	<circle fill="#C42127" cx="269.452" cy="296.459" r="13.185"/>
	<circle fill="#ED1F24" cx="304.614" cy="355.926" r="13.185"/>
	<circle fill="#C42127" cx="408.026" cy="175.466" r="13.185"/>
	<circle fill="#C42127" cx="199.648" cy="535.862" r="13.185"/>
	<circle fill="#C42127" cx="269.452" cy="535.862" r="13.185"/>
	<circle fill="#C42127" cx="337.708" cy="535.862" r="13.185"/>
	<circle fill="#C42127" cx="408.026" cy="535.862" r="13.185"/>
	<path fill="#A41D21" d="M479.606,527.425c4.665,0,8.435,3.774,8.435,8.435c0,4.656-3.77,8.435-8.435,8.435
		c-4.654,0-8.435-3.778-8.435-8.435C471.172,531.199,474.952,527.425,479.606,527.425z"/>
	<path fill="#C42127" d="M479.606,406.946c4.665,0,8.435,3.774,8.435,8.435c0,4.656-3.77,8.435-8.435,8.435
		c-4.654,0-8.435-3.778-8.435-8.435C471.172,410.721,474.952,406.946,479.606,406.946z"/>
	<path fill="#A41D21" d="M443.42,587.403c4.653,0,8.435,3.774,8.435,8.435c0,4.656-3.781,8.435-8.435,8.435
		c-4.666,0-8.436-3.778-8.436-8.435C434.984,591.178,438.754,587.403,443.42,587.403z"/>
	<path fill="#C42127" d="M443.42,467.961c4.653,0,8.435,3.774,8.435,8.435c0,4.656-3.781,8.435-8.435,8.435
		c-4.666,0-8.436-3.778-8.436-8.435C434.984,471.735,438.754,467.961,443.42,467.961z"/>
	<path fill="#A41D21" d="M515.162,467.961c4.654,0,8.436,3.774,8.436,8.435c0,4.656-3.781,8.435-8.436,8.435
		c-4.665,0-8.435-3.778-8.435-8.435C506.728,471.735,510.497,467.961,515.162,467.961z"/>
	<path fill="#C42127" d="M443.42,347.491c4.653,0,8.435,3.775,8.435,8.435c0,4.657-3.781,8.435-8.435,8.435
		c-4.666,0-8.436-3.778-8.436-8.435C434.984,351.266,438.754,347.491,443.42,347.491z"/>
	<path fill="#C42127" d="M443.42,226.479c4.653,0,8.435,3.775,8.435,8.435s-3.781,8.435-8.435,8.435
		c-4.666,0-8.436-3.775-8.436-8.435S438.754,226.479,443.42,226.479z"/>
	<path fill="#A41D21" d="M513.999,226.479c4.653,0,8.435,3.775,8.435,8.435s-3.781,8.435-8.435,8.435
		c-4.666,0-8.435-3.775-8.435-8.435S509.333,226.479,513.999,226.479z"/>
	<path fill="#C42127" d="M513.999,347.491c4.653,0,8.435,3.775,8.435,8.435s-3.781,8.435-8.435,8.435
		c-4.666,0-8.435-3.775-8.435-8.435S509.333,347.491,513.999,347.491z"/>
	<path fill="#A41D21" d="M546.599,406.946c4.666,0,8.435,3.774,8.435,8.435c0,4.659-3.769,8.435-8.435,8.435
		c-4.653,0-8.435-3.775-8.435-8.435C538.164,410.721,541.945,406.946,546.599,406.946z"/>
	<path fill="#A41D21" d="M546.599,288.019c4.666,0,8.435,3.775,8.435,8.435s-3.769,8.435-8.435,8.435
		c-4.653,0-8.435-3.775-8.435-8.435S541.945,288.019,546.599,288.019z"/>
	<path fill="#C42127" d="M479.606,288.019c4.665,0,8.435,3.775,8.435,8.435s-3.77,8.435-8.435,8.435
		c-4.654,0-8.435-3.775-8.435-8.435S474.952,288.019,479.606,288.019z"/>
	<circle fill="#ED1F24" cx="408.026" cy="415.381" r="8.435"/>
	<circle fill="#C42127" cx="373.125" cy="355.926" r="8.435"/>
	<path fill="#A41D21" d="M583.827,347.491c4.666,0,8.435,3.775,8.435,8.435s-3.769,8.435-8.435,8.435
		c-4.653,0-8.435-3.775-8.435-8.435S579.174,347.491,583.827,347.491z"/>
	<path fill="#A41D21" d="M479.606,167.031c4.665,0,8.435,3.769,8.435,8.435c0,4.653-3.77,8.435-8.435,8.435
		c-4.654,0-8.435-3.781-8.435-8.435C471.172,170.8,474.952,167.031,479.606,167.031z"/>
	<path fill="#A41D21" d="M374.937,108.346c4.653,0,8.435,3.769,8.435,8.435c0,4.653-3.781,8.435-8.435,8.435
		c-4.666,0-8.435-3.781-8.435-8.435C366.502,112.115,370.271,108.346,374.937,108.346z"/>
	<path fill="#A41D21" d="M443.42,108.346c4.653,0,8.435,3.769,8.435,8.435c0,4.653-3.781,8.435-8.435,8.435
		c-4.666,0-8.436-3.781-8.436-8.435C434.984,112.115,438.754,108.346,443.42,108.346z"/>
	<path fill="#A41D21" d="M235.21,108.346c4.66,0,8.435,3.769,8.435,8.435c0,4.653-3.775,8.435-8.435,8.435s-8.435-3.781-8.435-8.435
		C226.776,112.115,230.551,108.346,235.21,108.346z"/>
	<path fill="#A41D21" d="M163.455,108.346c4.66,0,8.435,3.769,8.435,8.435c0,4.653-3.775,8.435-8.435,8.435
		s-8.435-3.781-8.435-8.435C155.021,112.115,158.795,108.346,163.455,108.346z"/>
	<path fill="#A41D21" d="M129.329,166.831c4.66,0,8.435,3.769,8.435,8.435c0,4.654-3.775,8.435-8.435,8.435
		s-8.435-3.781-8.435-8.435C120.894,170.6,124.669,166.831,129.329,166.831z"/>
	<path fill="#A41D21" d="M93.651,226.479c4.66,0,8.435,3.769,8.435,8.435c0,4.654-3.775,8.435-8.435,8.435s-8.435-3.781-8.435-8.435
		C85.217,230.249,88.992,226.479,93.651,226.479z"/>
	<path fill="#A41D21" d="M59.525,288.019c4.66,0,8.435,3.769,8.435,8.435c0,4.654-3.775,8.435-8.435,8.435s-8.435-3.781-8.435-8.435
		C51.09,291.788,54.865,288.019,59.525,288.019z"/>
	<path fill="#A41D21" d="M24.023,347.485c4.66,0,8.435,3.769,8.435,8.435c0,4.654-3.775,8.435-8.435,8.435s-8.435-3.781-8.435-8.435
		C15.588,351.254,19.363,347.485,24.023,347.485z"/>
	<path fill="#A41D21" d="M59.525,406.949c4.66,0,8.435,3.769,8.435,8.435c0,4.653-3.775,8.435-8.435,8.435s-8.435-3.781-8.435-8.435
		C51.09,410.718,54.865,406.949,59.525,406.949z"/>
	<path fill="#A41D21" d="M93.651,467.964c4.66,0,8.435,3.769,8.435,8.435c0,4.653-3.775,8.435-8.435,8.435s-8.435-3.781-8.435-8.435
		C85.217,471.732,88.992,467.964,93.651,467.964z"/>
	<path fill="#A41D21" d="M129.329,527.425c4.66,0,8.435,3.769,8.435,8.435c0,4.653-3.775,8.435-8.435,8.435
		s-8.435-3.781-8.435-8.435C120.894,531.193,124.669,527.425,129.329,527.425z"/>
	<path fill="#A41D21" d="M303.693,108.346c4.66,0,8.435,3.769,8.435,8.435c0,4.653-3.774,8.435-8.435,8.435
		c-4.66,0-8.435-3.781-8.435-8.435C295.259,112.115,299.034,108.346,303.693,108.346z"/>
	<path fill="#A41D21" d="M374.937,587.403c4.653,0,8.435,3.774,8.435,8.435c0,4.656-3.781,8.435-8.435,8.435
		c-4.666,0-8.435-3.778-8.435-8.435C366.502,591.178,370.271,587.403,374.937,587.403z"/>
	<circle fill="#A41D21" cx="303.693" cy="595.838" r="8.435"/>
	<circle fill="#A41D21" cx="235.21" cy="595.838" r="8.435"/>
	<circle fill="#A41D21" cx="163.455" cy="595.838" r="8.435"/>
	<circle fill="#C42127" cx="163.455" cy="234.926" r="13.185"/>
	<circle fill="#ED1F24" cx="233.453" cy="235.12" r="20.426"/>
	<circle fill="#ED1F24" cx="233.453" cy="476.398" r="20.426"/>
	<circle fill="#ED1F24" cx="233.453" cy="355.92" r="20.426"/>
	<path fill="#ED1F24" d="M373.131,335.494c11.282,0,20.42,9.144,20.42,20.426s-9.138,20.426-20.42,20.426
		s-20.433-9.144-20.433-20.426S361.849,335.494,373.131,335.494z"/>
	<path fill="#ED1F24" d="M408.554,394.955c11.282,0,20.42,9.143,20.42,20.426c0,11.282-9.138,20.426-20.42,20.426
		s-20.432-9.144-20.432-20.426C388.122,404.098,397.271,394.955,408.554,394.955z"/>
	<path fill="#ED1F24" d="M374.937,455.97c11.282,0,20.433,9.144,20.433,20.426s-9.15,20.426-20.433,20.426
		s-20.42-9.144-20.42-20.426S363.654,455.97,374.937,455.97z"/>
	<circle fill="#ED1F24" cx="303.693" cy="355.92" r="20.426"/>
	<path fill="#ED1F24" d="M373.119,214.694c11.282,0,20.432,9.144,20.432,20.426c0,11.283-9.149,20.426-20.432,20.426
		c-11.283,0-20.421-9.144-20.421-20.426C352.698,223.838,361.836,214.694,373.119,214.694z"/>
	<circle fill="#ED1F24" cx="304.614" cy="235.12" r="20.426"/>
	<circle fill="#ED1F24" cx="304.614" cy="476.396" r="20.426"/>
	<path fill="#ED1F24" d="M199.648,276.027c11.282,0,20.426,9.149,20.426,20.432c0,11.282-9.144,20.42-20.426,20.42
		c-11.283,0-20.426-9.138-20.426-20.42C179.222,285.177,188.365,276.027,199.648,276.027z"/>
</g>
</svg>
